
<svg viewBox="0 0 257 38" fill="none" xmlns="http://www.w3.org/2000/svg">
<path
fillRule="evenodd"
clipRule="evenodd"
d="M20.8821 19.9188C21.4018 19.9188 21.8231 19.5074 21.8231 19C21.8231 18.4926 21.4018 18.0812 20.8821 18.0812C20.3624 18.0812 19.941 18.4926 19.941 19C19.941 19.5074 20.3624 19.9188 20.8821 19.9188ZM20.8821 21.7563C22.4412 21.7563 23.7052 20.5223 23.7052 19C23.7052 17.4778 22.4412 16.2437 20.8821 16.2437C19.3229 16.2437 18.059 17.4778 18.059 19C18.059 20.5223 19.3229 21.7563 20.8821 21.7563Z"
fill="#4E38ED"
/>
<path
fillRule="evenodd"
clipRule="evenodd"
d="M35.625 19C35.625 26.9496 29.0244 33.394 20.8821 33.394C13.7944 33.394 7.87485 28.5108 6.46034 22.0024H2.375V16.0859H6.44145C7.82139 9.53343 13.7624 4.60608 20.8821 4.60608C29.0244 4.60608 35.625 11.0505 35.625 19ZM20.8821 27.6772C25.7905 27.6772 29.7697 23.7923 29.7697 19C29.7697 14.2077 25.7905 10.3228 20.8821 10.3228C15.9736 10.3228 11.9945 14.2077 11.9945 19C11.9945 23.7923 15.9736 27.6772 20.8821 27.6772Z"
fill="#4E38ED"
/>
<path
fillRule="evenodd"
clipRule="evenodd"
d="M20.8821 21.7563C22.4412 21.7563 23.7052 20.5223 23.7052 19C23.7052 17.4778 22.4412 16.2437 20.8821 16.2437C19.3229 16.2437 18.059 17.4778 18.059 19C18.059 20.5223 19.3229 21.7563 20.8821 21.7563ZM20.8821 19.9188C21.4018 19.9188 21.8231 19.5074 21.8231 19C21.8231 18.4926 21.4018 18.0812 20.8821 18.0812C20.3624 18.0812 19.941 18.4926 19.941 19C19.941 19.5074 20.3624 19.9188 20.8821 19.9188Z"
fill="#4E38ED"
/>
<path d="M53.5496 26.38V6.67497H48.3346V31H64.6796V26.38H53.5496Z" fill="#111111" />
<path
d="M77.815 12.555V23.475C77.815 25.4 76.415 26.835 74.28 26.835C72.11 26.835 70.78 25.4 70.78 23.37V12.555H65.6V24.035C65.6 28.235 68.05 31.455 72.74 31.455C74.945 31.455 76.835 30.58 78.13 29.25V31H82.995V12.555H77.815Z"
fill="#111111"
/>
<path
d="M103.878 31L96.913 21.725L103.738 12.555H98.243L94.148 18.05L90.018 12.555H84.278L90.998 21.48L83.788 31H89.283L93.763 25.155L98.173 31H103.878Z"
fill="#111111"
/>
<path
d="M112.508 31.455C118.318 31.455 122.483 27.29 122.483 21.795C122.483 16.265 118.318 12.135 112.508 12.135C106.663 12.135 102.533 16.265 102.533 21.795C102.533 27.29 106.663 31.455 112.508 31.455ZM112.543 26.835C109.673 26.835 107.748 24.735 107.748 21.795C107.748 18.82 109.673 16.755 112.543 16.755C115.413 16.755 117.303 18.82 117.303 21.76C117.303 24.735 115.343 26.835 112.543 26.835Z"
fill="#111111"
/>
<path
d="M135.082 12.1C132.702 12.1 130.777 12.975 129.517 14.27V12.555H124.617V31H129.797V20.08C129.832 18.19 131.442 16.72 133.507 16.72C135.607 16.72 137.147 18.05 137.147 20.395V31H142.292V19.38C142.292 15.075 139.492 12.1 135.082 12.1Z"
fill="#111111"
/>
<path
d="M147.768 9.85997C149.658 9.85997 151.128 8.49497 151.128 6.56997C151.128 4.67997 149.658 3.27997 147.768 3.27997C145.878 3.27997 144.373 4.67997 144.373 6.56997C144.373 8.49497 145.878 9.85997 147.768 9.85997ZM145.143 31H150.323V12.555H145.143V31Z"
fill="#111111"
/>
<path
d="M160.155 31.455C164.88 31.455 167.925 29.18 167.925 25.47C167.925 18.68 158.055 20.465 158.055 17.49C158.055 16.545 158.825 15.985 160.225 15.985C161.59 15.985 162.57 16.615 163.025 17.875L167.4 16.195C166.63 13.64 163.97 12.135 160.295 12.135C155.815 12.135 152.945 14.27 152.945 17.77C152.945 24.105 162.78 22.565 162.78 25.785C162.78 26.835 161.87 27.465 160.33 27.465C158.265 27.465 156.935 26.52 156.445 24.91L152.07 26.59C153.12 29.775 156.06 31.455 160.155 31.455Z"
fill="#111111"
/>
<path
d="M185.999 6.67497H176.514V31H185.999C193.279 31 198.389 26.24 198.389 18.82C198.389 11.4 193.279 6.67497 185.999 6.67497ZM185.824 26.38H181.729V11.295H185.824C190.129 11.295 193.104 14.025 193.104 18.89C193.104 23.685 190.129 26.38 185.824 26.38Z"
fill="#111111"
/>
<path
d="M209.856 31.455C215.666 31.455 219.831 27.29 219.831 21.795C219.831 16.265 215.666 12.135 209.856 12.135C204.011 12.135 199.881 16.265 199.881 21.795C199.881 27.29 204.011 31.455 209.856 31.455ZM209.891 26.835C207.021 26.835 205.096 24.735 205.096 21.795C205.096 18.82 207.021 16.755 209.891 16.755C212.761 16.755 214.651 18.82 214.651 21.76C214.651 24.735 212.691 26.835 209.891 26.835Z"
fill="#111111"
/>
<path
d="M230.82 31.455C235.93 31.455 239.01 28.165 239.815 25.47L235.195 23.615C234.67 25.505 233.13 26.835 230.925 26.835C228.335 26.835 226.305 24.875 226.305 21.795C226.305 18.715 228.335 16.755 230.925 16.755C233.095 16.755 234.565 18.085 235.09 20.01L239.71 18.19C238.905 15.425 235.825 12.135 230.82 12.135C225.22 12.135 221.09 16.37 221.09 21.83C221.09 27.29 225.29 31.455 230.82 31.455Z"
fill="#111111"
/>
<path
d="M248.256 31.455C252.981 31.455 256.026 29.18 256.026 25.47C256.026 18.68 246.156 20.465 246.156 17.49C246.156 16.545 246.926 15.985 248.326 15.985C249.691 15.985 250.671 16.615 251.126 17.875L255.501 16.195C254.731 13.64 252.071 12.135 248.396 12.135C243.916 12.135 241.046 14.27 241.046 17.77C241.046 24.105 250.881 22.565 250.881 25.785C250.881 26.835 249.971 27.465 248.431 27.465C246.366 27.465 245.036 26.52 244.546 24.91L240.171 26.59C241.221 29.775 244.161 31.455 248.256 31.455Z"
fill="#111111"
/>
</svg>